<?xml version="1.0" encoding="utf-8"?>
<!-- Svg Vector Icons : http://www.onlinewebfonts.com/icon -->
<!DOCTYPE svg PUBLIC "-//W3C//DTD SVG 1.1//EN" "http://www.w3.org/Graphics/SVG/1.1/DTD/svg11.dtd">
<svg version="1.1" xmlns="http://www.w3.org/2000/svg" xmlns:xlink="http://www.w3.org/1999/xlink" x="0px" y="0px" viewBox="0 0 1000 1000" enable-background="new 0 0 1000 1000" xml:space="preserve">
<metadata> Svg Vector Icons : http://www.onlinewebfonts.com/icon </metadata>
<g><path d="M973.9,267.4c-36.7-69.4-110.3-85.8-175.6-81.7C741.1,104,610.4,71.3,528.7,71.3c-122.5,0-151.1,20.4-151.1,53.1c0,40.8,53.1,53.1,134.8,36.8c138.9-24.5,208.3-8.2,257.3,40.8c-49,36.8-36.7,65.3-61.3,89.8c-65.3,65.4-114.4-16.3-249.1-16.3c-200.1,0-224.6,204.2-224.6,204.2S214.2,439,165.2,439c-49,0-73.5,20.4-73.5,53.1c0,45,53.1,98,138.9,49c24.5,57.2,110.3,89.9,118.4,93.9c28.6,4.1,110.3,20.4,110.3,49c0,36.8-81.7,53.1-81.7,81.7c0,65.3,171.6,4.1,261.4,151.1c32.7,57.2,126.6,69.4,126.6,28.6c0-155.2-216.5-200.2-212.4-200.2c28.6-20.4,114.4-57.2,114.4-167.5c0-94-81.7-143-81.7-143s130.7,44.9,130.7,159.3c0,73.5-36.7,126.6-36.7,126.6s106.2-73.6,106.2-318.6c28.6,20.4,81.7,28.6,114.4,32.7c36.8,4.1,73.5-12.2,81.7-24.5C998.5,369.5,986.2,291.9,973.9,267.4z M933.1,345c-16.3,0-28.6-12.3-28.6-28.6s12.2-28.6,28.6-28.6c16.4,0,28.6,12.3,28.6,28.6S949.4,345,933.1,345z"/><path d="M826.9,173.5c0,0-53.1-143-285.9-143c-114.4,0-77.6,24.5-57.2,24.5C561.4,50.9,745.2,59.1,826.9,173.5z"/><path d="M304.1,275.6H10v40.8h241C251,316.4,259.2,279.7,304.1,275.6z"/><path d="M320.4,193.9H10v40.8h379.9C328.6,234.7,320.4,193.9,320.4,193.9z"/></g>
</svg>