<?xml version="1.0" encoding="utf-8"?>
<!-- Svg Vector Icons : http://www.onlinewebfonts.com/icon -->
<!DOCTYPE svg PUBLIC "-//W3C//DTD SVG 1.1//EN" "http://www.w3.org/Graphics/SVG/1.1/DTD/svg11.dtd">
<svg version="1.1" xmlns="http://www.w3.org/2000/svg" xmlns:xlink="http://www.w3.org/1999/xlink" x="0px" y="0px" viewBox="0 0 1000 1000" enable-background="new 0 0 1000 1000" xml:space="preserve">
<metadata> Svg Vector Icons : http://www.onlinewebfonts.com/icon </metadata>
<g><path d="M806.3,180.7c-85.7,49-69.4,142.9-122.5,204.2C569.4,527.8,353,601.3,132.5,621.7C87.6,625.8,30.4,658.5,10,703.4c40.8-12.2,106.2-4.1,138.8,16.3c0,24.5-81.7,49-44.9,93.9c28.6,16.3,69.4,16.3,110.3,4.1c36.7-24.5,40.8-40.8,57.2-73.5c175.6,36.8,298.1-4.1,298.1-4.1s12.2,49,49,73.5c40.8,20.4,93.9,16.3,130.6,0c36.8-36.8-44.9-57.2-44.9-130.7c0-110.3,32.7-187.8,122.5-269.5c28.6,49,110.3,40.8,142.9-4.1c12.2-20.4,20.4-40.8,20.4-65.3C990,197,859.3,152.1,806.3,180.7z M908.3,323.6c-16.3,0-28.6-12.3-28.6-28.6c0-16.3,12.2-28.6,28.6-28.6c16.3,0,28.6,12.3,28.6,28.6C936.9,311.4,924.7,323.6,908.3,323.6z"/><path d="M569.4,319.5c-32.7-61.3-122.5-142.9-314.4-89.8C42.7,295,46.7,466.5,79.4,507.4c0,0-49,20.4-20.4,61.3c24.5,28.6,155.2,8.2,269.5-28.6c114.3-32.7,212.3-85.8,265.4-126.6C642.9,376.7,622.5,311.4,569.4,319.5z"/></g>
</svg>